HIERARCHY
ROOT joint_Root
{
	OFFSET 0.0 0.0 0.0
	CHANNELS 6 Xposition Yposition Zposition Zrotation Xrotation Yrotation 
	JOINT Hips
	{
		OFFSET 4.5925 91.4895 -427.239
		CHANNELS 6 Xposition Yposition Zposition Zrotation Xrotation Yrotation 
		JOINT Spine
		{
			OFFSET 15.7357 0.0 0.0
			CHANNELS 6 Xposition Yposition Zposition Zrotation Xrotation Yrotation 
			JOINT Chest
			{
				OFFSET 8.98455 -0.406207 0.0
				CHANNELS 6 Xposition Yposition Zposition Zrotation Xrotation Yrotation 
				JOINT Neck
				{
					OFFSET 16.3773 0.0 0.0
					CHANNELS 6 Xposition Yposition Zposition Zrotation Xrotation Yrotation 
					JOINT Head
					{
						OFFSET 6.45672 0.0 0.0
						CHANNELS 6 Xposition Yposition Zposition Zrotation Xrotation Yrotation 
						End Site
						{
							OFFSET 0.0 0.0 0.0
						}
					}
				}
				JOINT Shoulder_L
				{
					OFFSET 12.9942 -0.242716 4.98039
					CHANNELS 6 Xposition Yposition Zposition Zrotation Xrotation Yrotation 
					JOINT UpperArm_L
					{
						OFFSET 5.34809 0.0 0.0
						CHANNELS 6 Xposition Yposition Zposition Zrotation Xrotation Yrotation 
						JOINT LowerArm_L
						{
							OFFSET 24.3286 1.87007e-05 0.0
							CHANNELS 6 Xposition Yposition Zposition Zrotation Xrotation Yrotation 
							JOINT Hand_L
							{
								OFFSET 22.2916 0.0 0.0
								CHANNELS 6 Xposition Yposition Zposition Zrotation Xrotation Yrotation 
								End Site
								{
									OFFSET 0.0 0.0 0.0
								}
							}
						}
					}
				}
				JOINT Shoulder_R
				{
					OFFSET 12.9945 -0.242716 -4.98039
					CHANNELS 6 Xposition Yposition Zposition Zrotation Xrotation Yrotation 
					JOINT UpperArm_R
					{
						OFFSET -5.34813 0.0 0.0
						CHANNELS 6 Xposition Yposition Zposition Zrotation Xrotation Yrotation 
						JOINT LowerArm_R
						{
							OFFSET -24.3289 0.000322201 0.0
							CHANNELS 6 Xposition Yposition Zposition Zrotation Xrotation Yrotation 
							JOINT Hand_R
							{
								OFFSET -22.2915 -0.000108084 0.0
								CHANNELS 6 Xposition Yposition Zposition Zrotation Xrotation Yrotation 
								End Site
								{
									OFFSET 0.0 0.0 0.0
								}
							}
						}
					}
				}
			}
		}
		JOINT UpperLeg_L
		{
			OFFSET -2.19248 -6.46944 0.0
			CHANNELS 6 Xposition Yposition Zposition Zrotation Xrotation Yrotation 
			JOINT LowerLeg_L
			{
				OFFSET 39.0811 0.0 -1.23785e-05
				CHANNELS 6 Xposition Yposition Zposition Zrotation Xrotation Yrotation 
				JOINT Foot_L
				{
					OFFSET 40.9854 0.0 -1.26872e-05
					CHANNELS 6 Xposition Yposition Zposition Zrotation Xrotation Yrotation 
					JOINT Toes_L
					{
						OFFSET 11.7543 0.0 0.0
						CHANNELS 6 Xposition Yposition Zposition Zrotation Xrotation Yrotation 
						End Site
						{
							OFFSET 0.0 0.0 0.0
						}
					}
				}
			}
		}
		JOINT UpperLeg_R
		{
			OFFSET -2.19251 6.46944 0.0
			CHANNELS 6 Xposition Yposition Zposition Zrotation Xrotation Yrotation 
			JOINT LowerLeg_R
			{
				OFFSET -39.0811 -0.00228153 -0.0401928
				CHANNELS 6 Xposition Yposition Zposition Zrotation Xrotation Yrotation 
				JOINT Foot_R
				{
					OFFSET -40.9854 0.0 0.0
					CHANNELS 6 Xposition Yposition Zposition Zrotation Xrotation Yrotation 
					JOINT Toes_R
					{
						OFFSET -11.7543 0.0 0.0
						CHANNELS 6 Xposition Yposition Zposition Zrotation Xrotation Yrotation 
						End Site
						{
							OFFSET 0.0 0.0 0.0
						}
					}
				}
			}
		}
	}
}
MOTION
Frames:	4
Frame Time:	0.0333333
0.000000 0.000000 0.000000 0.000000 0.000000 -0.000000 0.502847 91.182800 4.590520 89.268800 -0.933640 4.971240 15.735700 0.000005 -0.000001 86.880100 88.168700 -87.591700 8.984550 -0.406207 -0.000000 -4.109190 -0.125497 -1.428390 16.377300 -0.000001 -0.000001 5.573590 -4.133680 1.803500 6.456720 -0.000001 -0.000000 2.478870 -5.434120 3.181450 12.994200 -0.242716 4.980390 -83.970900 -11.664300 -62.417400 5.348090 -0.000007 -0.000001 -52.609600 -51.706500 -71.317500 24.328600 0.000019 0.000005 2.703730 2.685800 -45.231600 22.291600 -0.000001 0.000005 19.853300 4.993320 7.473000 12.994500 -0.242716 -4.980390 93.312200 -8.950300 -69.595500 -5.348130 -0.000001 -0.000004 -57.954400 -55.427800 -76.658500 -24.328900 0.000322 -0.000009 -12.915500 -11.236700 -49.652200 -22.291500 -0.000108 -0.000004 25.074400 5.250650 1.425250 -2.192480 -6.469440 -0.000000 -176.310000 -10.957800 -0.285082 39.081100 -0.000007 -0.000012 -0.153842 0.309172 26.454900 40.985400 -0.000006 -0.000013 0.770268 4.806610 -71.271500 11.754300 -0.000000 0.000003 -0.000307 -0.002651 -16.676300 -2.192510 6.469440 -0.000001 174.307000 21.454200 -178.763000 -39.081100 -0.002282 -0.040193 -0.012172 0.032302 25.609200 -40.985400 0.000008 0.000006 6.089840 14.871200 -72.333300 -11.754300 -0.000006 -0.000006 -0.002368 -0.033236 -17.924600
0.000000 0.000000 0.000000 0.000000 0.000000 -0.000000 0.479361 91.142500 4.729750 89.224200 -0.584772 5.384210 15.735700 0.000005 -0.000001 89.787800 88.149200 -90.532900 8.984550 -0.406207 -0.000000 -4.063600 0.063175 -1.488700 16.377300 -0.000001 -0.000001 5.819580 -4.195340 1.724100 6.456720 -0.000001 -0.000000 2.779940 -5.617180 3.169130 12.994200 -0.242716 4.980390 -83.100200 -13.116600 -61.932000 5.348090 -0.000007 -0.000001 -49.418300 -50.689900 -78.096500 24.328600 0.000019 0.000005 4.198700 2.670170 -57.537400 22.291600 -0.000001 0.000005 21.932500 5.086750 5.421330 12.994500 -0.242716 -4.980390 93.845400 -9.987270 -68.815600 -5.348130 -0.000001 -0.000004 -57.245000 -54.292500 -85.420200 -24.328900 0.000322 -0.000009 -11.401300 -6.904710 -59.210000 -22.291500 -0.000108 -0.000004 26.917500 5.404800 -3.044550 -2.192480 -6.469440 -0.000000 -176.164000 -10.706000 0.121173 39.081100 -0.000007 -0.000012 -0.159576 0.318336 26.624000 40.985400 -0.000006 -0.000013 0.777126 4.898760 -71.439700 11.754300 -0.000000 0.000003 -0.000309 -0.002665 -16.676700 -2.192510 6.469440 -0.000001 174.230000 21.591900 -178.418000 -39.081100 -0.002282 -0.040193 0.005433 -0.004345 26.042000 -40.985400 0.000008 0.000006 6.486630 14.517600 -72.470400 -11.754300 -0.000006 -0.000006 -0.002381 -0.033392 -17.931000
0.000000 0.000000 0.000000 0.000000 0.000000 -0.000000 0.421135 91.128000 4.804280 89.198800 -0.322198 5.436390 15.735700 0.000005 -0.000001 92.567500 88.139700 -93.414600 8.984550 -0.406207 -0.000000 -4.046740 0.253838 -1.686090 16.377300 -0.000001 -0.000001 6.140800 -4.248270 1.600680 6.456720 -0.000001 -0.000000 2.832930 -6.188160 3.496840 12.994200 -0.242716 4.980390 -82.110800 -14.558400 -61.133900 5.348090 -0.000007 -0.000001 -45.658000 -52.535900 -83.473400 24.328600 0.000019 0.000005 11.580600 4.385830 -69.497600 22.291600 -0.000001 0.000005 23.886000 5.236890 1.841650 12.994500 -0.242716 -4.980390 94.382900 -10.685900 -67.542400 -5.348130 -0.000001 -0.000004 -50.154800 -55.126900 -87.570900 -24.328900 0.000322 -0.000009 -8.800270 -3.762250 -67.046000 -22.291500 -0.000108 -0.000004 32.828800 5.618010 -11.904600 -2.192480 -6.469440 -0.000000 -175.998000 -10.868200 0.170603 39.081100 -0.000007 -0.000012 -0.163119 0.324425 26.693100 40.985400 -0.000006 -0.000013 0.833119 5.332800 -71.499400 11.754300 -0.000000 0.000003 -0.000303 -0.002621 -16.675200 -2.192510 6.469440 -0.000001 174.185000 21.921000 -178.237000 -39.081100 -0.002282 -0.040193 0.004285 -0.001995 26.041000 -40.985400 0.000008 0.000006 6.499230 14.586300 -72.531300 -11.754300 -0.000006 -0.000006 -0.002266 -0.032001 -17.874400
0.000000 0.000000 0.000000 0.000000 0.000000 -0.000000 0.379236 91.134000 4.954770 89.242700 0.036837 5.078690 15.735700 0.000005 -0.000001 94.856600 88.416400 -95.853800 8.984550 -0.406207 -0.000000 -4.606230 0.375505 -1.980670 16.377300 -0.000001 -0.000001 7.566570 -4.199250 1.024990 6.456720 -0.000001 -0.000000 3.138800 -6.878720 4.459550 12.994200 -0.242716 4.980390 -80.963600 -15.885400 -59.842500 5.348090 -0.000007 -0.000001 -47.756700 -52.457600 -90.429600 24.328600 0.000019 0.000005 19.655500 5.679020 -74.514600 22.291600 -0.000001 0.000005 30.249400 5.397580 -2.854270 12.994500 -0.242716 -4.980390 94.694900 -10.798100 -66.329300 -5.348130 -0.000001 -0.000004 -43.151300 -55.528200 -85.756300 -24.328900 0.000322 -0.000009 -2.173950 -0.872658 -68.103800 -22.291500 -0.000108 -0.000004 40.656300 5.682410 -21.381800 -2.192480 -6.469440 -0.000000 -176.111000 -10.494600 -0.071867 39.081100 -0.000007 -0.000012 -0.160063 0.320420 26.544200 40.985400 -0.000006 -0.000013 0.786607 5.329350 -71.490300 11.754300 -0.000000 0.000003 -0.000318 -0.002735 -16.679200 -2.192510 6.469440 -0.000001 174.126000 22.538700 -178.248000 -39.081100 -0.002282 -0.040193 0.002337 0.002019 25.746800 -40.985400 0.000008 0.000006 6.487960 14.857900 -72.649600 -11.754300 -0.000006 -0.000006 -0.002530 -0.035160 -18.002900
